<?xml version="1.0" encoding="utf-8"?>
<!-- Generator: Adobe Illustrator 16.0.4, SVG Export Plug-In . SVG Version: 6.00 Build 0)  -->
<!DOCTYPE svg PUBLIC "-//W3C//DTD SVG 1.1//EN" "http://www.w3.org/Graphics/SVG/1.1/DTD/svg11.dtd">
<svg version="1.1" id="Layer_1" xmlns="http://www.w3.org/2000/svg" xmlns:xlink="http://www.w3.org/1999/xlink" x="0px" y="0px"
	 width="85px" height="84px" viewBox="0 0 85 84" enable-background="new 0 0 85 84" xml:space="preserve">
<g>
	<g>
		<path fill="#B9D2B7" d="M29.08,81.605c8.115,2.786,12.554,2.235,30.596,2.235c-11.297-2.07-21.702-6.701-30.596-13.274V81.605z"/>
		<path fill="#B9D2B7" d="M0.977,28.549c0,14.309-1.166,24.123,6.648,36.232c3.562,5.521,8.43,10.216,14.375,13.622V64.627
			C11.878,55.006,4.451,42.562,0.977,28.549z"/>
		<path fill="#A5C7A3" d="M22,64.627V48.655C11.654,34.737,7.519,17.415,10.176,0.472H0.977v28.077
			C4.451,42.562,11.878,55.006,22,64.627z"/>
		<path fill="#A5C7A3" d="M33.391,60.46c-1.559-0.78-3.008-1.753-4.311-2.887v12.993c8.894,6.573,19.299,11.204,30.596,13.274
			h24.408V73.46C66.691,76.489,48.159,72.294,33.391,60.46z"/>
		<path fill="#90BD91" d="M22,48.655c0-6.702-0.51-11.024,2.562-16.581c-4.479-10.124-5.582-21.176-3.604-31.603H10.176
			C7.52,17.409,11.65,34.732,22,48.655z"/>
		<path fill="#90BD91" d="M29.181,40.406c-1.066,8.815,6.544,16.277,15.332,14.966C38.447,51.476,33.227,46.373,29.181,40.406z"/>
		<path fill="#90BD91" d="M52.943,59.77c-6.01,3.562-13.385,3.784-19.553,0.69c14.766,11.831,33.297,16.029,50.693,13V62.612
			C73.791,64.782,62.9,63.876,52.943,59.77z"/>
		<path fill="#7CB380" d="M60.861,51.296c-1.779,3.526-4.539,6.471-7.918,8.474c9.94,4.101,20.832,5.016,31.141,2.843v-10.95
			C76.523,53.687,68.424,53.58,60.861,51.296z"/>
		<path fill="#7CB380" d="M24.562,32.074c1.905-3.449,4.767-6.295,8.226-8.173c-2.535-7.673-2.793-15.83-0.969-23.43H20.957
			C18.98,10.896,20.082,21.947,24.562,32.074z"/>
		<path fill="#7CB380" d="M35.592,30.47c-3.463,2.102-5.906,5.723-6.411,9.936c4.046,5.967,9.267,11.069,15.332,14.966
			c4.17-0.62,7.718-3.167,9.722-6.706C46.287,44.702,39.753,38.317,35.592,30.47z"/>
		<path fill="#68AA6F" d="M35.592,30.47c4.161,7.847,10.695,14.232,18.643,18.196c2.114-3.734,2.287-8.167,0.654-11.966
			c-2.834-1.987-5.332-4.425-7.389-7.21C43.635,27.941,39.22,28.271,35.592,30.47z"/>
		<path fill="#68AA6F" d="M84.051,40.514c-6.743,2.471-14.189,2.573-20.988,0.306c0,3.657-0.299,6.707-2.201,10.476
			c7.555,2.282,15.654,2.393,23.223,0.366C84.084,41.192,84.097,41.735,84.051,40.514z"/>
		<path fill="#68AA6F" d="M32.787,23.901c3.156-1.716,6.705-2.576,10.393-2.457c-2.426-6.668-2.586-14.075-0.32-20.969
			c-0.705-0.007,1.969-0.004-11.041-0.004C29.994,8.069,30.251,16.227,32.787,23.901z"/>
		<path fill="#52A25E" d="M43.18,21.445c4.887,0.153,9.351,2.021,12.804,5.033v-3.4c-4.62-6.313-5.255-14.39-2.343-21.098
			c-3.436-0.953-7.05-1.475-10.781-1.504C40.596,7.364,40.751,14.771,43.18,21.445z"/>
		<path fill="#52A25E" d="M47.5,29.49c2.057,2.785,4.555,5.223,7.389,7.21C53.48,33.422,50.812,30.815,47.5,29.49z"/>
		<path fill="#52A25E" d="M63.062,29.258V40.82c6.785,2.264,14.23,2.17,20.988-0.306c-0.146-3.738-0.777-7.349-1.84-10.77
			C76.147,32.63,69.006,32.469,63.062,29.258z"/>
		<path fill="#359B4F" d="M63.062,13.916v15.342c5.936,3.207,13.078,3.376,19.148,0.487c-1.067-3.441-2.57-6.688-4.439-9.681
			C72.049,22.863,65.126,20,63.062,13.916z"/>
		<path fill="#359B4F" d="M55.983,23.078V2.711c-0.771-0.265-1.552-0.51-2.343-0.731C50.727,8.689,51.365,16.765,55.983,23.078z"/>
		<path fill="#009444" d="M63.062,5.915c0,2.943,0,4.982,0,8c2.066,6.095,8.996,8.942,14.709,6.148
			C74.184,14.316,69.33,9.555,63.062,5.915z"/>
	</g>
</g>
<rect x="27.265" y="39.01" fill="#FFFFFF" width="29.787" height="7.17"/>
<rect id="_x3C_Slice_x3E_" fill="none" width="85" height="84"/>
</svg>
