<?xml version="1.0" encoding="utf-8"?>
<!-- Generator: Adobe Illustrator 16.0.4, SVG Export Plug-In . SVG Version: 6.00 Build 0)  -->
<!DOCTYPE svg PUBLIC "-//W3C//DTD SVG 1.1//EN" "http://www.w3.org/Graphics/SVG/1.1/DTD/svg11.dtd">
<svg version="1.1" id="Layer_1" xmlns="http://www.w3.org/2000/svg" xmlns:xlink="http://www.w3.org/1999/xlink" x="0px" y="0px"
	 width="236.99px" height="57.776px" viewBox="0 0 236.99 57.776" enable-background="new 0 0 236.99 57.776" xml:space="preserve">
<g>
	<path d="M14.584,0c0.976,0,1.815,0.341,2.519,1.024c0.682,0.703,1.024,1.542,1.024,2.52v0.058c0,0.977-0.343,1.816-1.024,2.52
		c-0.703,0.683-1.543,1.024-2.519,1.024h-1.671c-1.6,0-2.956,0.556-4.069,1.67c-1.094,1.112-1.65,2.186-1.67,3.221h7.41
		c0.976,0,1.815,0.352,2.519,1.055c0.682,0.682,1.024,1.511,1.024,2.489v0.058c0,0.976-0.343,1.815-1.024,2.518
		c-0.703,0.703-1.543,1.055-2.519,1.055h-7.41v22.988c0,0.994-0.352,1.825-1.054,2.489c-0.703,0.703-1.532,1.055-2.49,1.055H3.544
		c-0.958,0-1.786-0.352-2.489-1.055C0.352,44.023,0,43.192,0,42.198V12.883c0.039-3.571,1.299-6.606,3.777-9.105
		C6.295,1.259,9.341,0,12.913,0H14.584z"/>
	<path d="M26.912,8.2c-1.133,0-2.099-0.4-2.898-1.202c-0.801-0.8-1.201-1.767-1.201-2.898c0-1.113,0.4-2.069,1.201-2.869
		c0.8-0.802,1.766-1.202,2.898-1.202c1.112,0,2.07,0.4,2.87,1.202c0.82,0.78,1.23,1.737,1.23,2.869c0,1.152-0.41,2.118-1.23,2.898
		C28.982,7.8,28.024,8.2,26.912,8.2z M26.941,12.007c0.997,0,1.825,0.35,2.489,1.052c0.703,0.703,1.055,1.542,1.055,2.521v26.619
		c0,0.994-0.352,1.825-1.055,2.489c-0.664,0.703-1.492,1.055-2.489,1.055h-0.058c-0.978,0-1.816-0.352-2.519-1.055
		c-0.703-0.664-1.054-1.495-1.054-2.489V15.58c0-0.979,0.351-1.818,1.054-2.521c0.702-0.702,1.541-1.052,2.519-1.052H26.941z"/>
	<path d="M44.628,42.198c0,0.994-0.351,1.825-1.054,2.489c-0.703,0.703-1.532,1.055-2.489,1.055h-0.087
		c-0.957,0-1.786-0.352-2.489-1.055c-0.703-0.664-1.055-1.495-1.055-2.489V26.179c0-3.903,1.385-7.242,4.158-10.015
		c2.772-2.772,6.111-4.158,10.016-4.158c3.885,0,7.213,1.385,9.986,4.158c2.771,2.772,4.158,6.112,4.158,10.015v16.019
		c0,0.994-0.352,1.825-1.055,2.489c-0.664,0.703-1.493,1.055-2.488,1.055h-0.06c-0.976,0-1.815-0.352-2.519-1.055
		c-0.702-0.664-1.054-1.495-1.054-2.489V26.179c0-1.933-0.675-3.583-2.021-4.95c-1.366-1.367-3.017-2.048-4.948-2.048
		c-1.953,0-3.611,0.682-4.979,2.048c-1.347,1.367-2.021,3.017-2.021,4.95V42.198z"/>
	<path d="M100.943,0c0.956,0,1.786,0.341,2.489,1.024c0.703,0.703,1.054,1.542,1.054,2.52v25.418
		c-0.02,4.645-1.679,8.598-4.978,11.859c-3.3,3.281-7.263,4.921-11.891,4.921c-4.646,0-8.619-1.65-11.917-4.95
		c-3.3-3.3-4.95-7.271-4.95-11.919c0-4.646,1.65-8.619,4.95-11.919c3.298-3.297,7.271-4.947,11.917-4.947
		c4.236,0,7.469,0.976,9.694,2.927V3.544c0-0.978,0.352-1.816,1.054-2.52C99.069,0.341,99.898,0,100.855,0H100.943z M80.737,22.08
		c-1.874,1.894-2.812,4.189-2.812,6.883c0,2.672,0.938,4.958,2.812,6.851c1.894,1.895,4.188,2.841,6.881,2.841
		c2.675,0,4.959-0.946,6.854-2.841c1.894-1.894,2.841-4.179,2.841-6.851c0-2.694-0.947-4.989-2.841-6.883
		c-1.895-1.894-4.179-2.841-6.854-2.841C84.925,19.239,82.631,20.186,80.737,22.08z"/>
	<path d="M139.13,16.954c3.299,3.3,4.948,7.273,4.948,11.919v13.325c0,0.994-0.352,1.825-1.055,2.489
		c-0.701,0.703-1.531,1.055-2.487,1.055h-0.088c-0.958,0-1.786-0.352-2.489-1.055c-0.703-0.664-1.055-1.495-1.055-2.489
		c-2.226,2.363-5.457,3.544-9.693,3.544c-4.646,0-8.619-1.65-11.919-4.95c-3.299-3.3-4.948-7.271-4.948-11.919
		c0-4.646,1.649-8.619,4.948-11.919c3.3-3.297,7.272-4.947,11.919-4.947S135.83,13.657,139.13,16.954z M120.329,22.021
		c-1.874,1.894-2.812,4.179-2.812,6.852c0,2.694,0.938,4.989,2.812,6.883c1.895,1.873,4.188,2.812,6.882,2.812
		c2.693,0,4.979-0.938,6.853-2.812c1.894-1.894,2.841-4.188,2.841-6.883c0-2.673-0.947-4.958-2.841-6.852
		c-1.894-1.894-4.179-2.84-6.853-2.84C124.517,19.181,122.224,20.128,120.329,22.021z"/>
	<path fill="#006838" d="M153.479,57.776c-0.958,0-1.786-0.352-2.489-1.055s-1.055-1.531-1.055-2.489V28.815
		c0.02-4.667,1.679-8.63,4.979-11.89c3.278-3.279,7.242-4.918,11.889-4.918c4.647,0,8.62,1.65,11.919,4.947
		c3.299,3.3,4.949,7.273,4.949,11.919c0,4.648-1.65,8.619-4.949,11.919s-7.271,4.95-11.919,4.95c-4.256,0-7.487-0.976-9.693-2.931
		v11.421c0,0.958-0.352,1.786-1.053,2.489c-0.703,0.703-1.533,1.055-2.489,1.055H153.479z M173.655,35.667
		c1.895-1.895,2.841-4.176,2.841-6.852c0-2.694-0.946-4.989-2.841-6.883c-1.874-1.873-4.158-2.812-6.853-2.812
		c-2.693,0-4.987,0.939-6.881,2.812c-1.875,1.894-2.812,4.189-2.812,6.883c0,2.676,0.938,4.957,2.812,6.852
		c1.894,1.894,4.188,2.841,6.881,2.841C169.478,38.508,171.762,37.561,173.655,35.667z"/>
	<path fill="#006838" d="M209.158,21.846c0.235,0.488,0.352,0.986,0.352,1.492c0,0.409-0.078,0.821-0.234,1.23
		c-0.332,0.918-0.956,1.582-1.874,1.991c-2.733,1.23-6.326,2.851-10.777,4.86c-5.523,2.5-8.765,3.974-9.722,4.423
		c1.483,1.875,3.797,2.812,6.94,2.812c2.089,0,3.982-0.613,5.682-1.844c1.659-1.212,2.82-2.772,3.484-4.688
		c0.566-1.6,1.698-2.4,3.396-2.4c1.211,0,2.178,0.509,2.9,1.521c0.448,0.627,0.673,1.28,0.673,1.962
		c0,0.412-0.077,0.832-0.233,1.262c-1.153,3.337-3.174,6.03-6.062,8.082c-2.929,2.127-6.208,3.192-9.84,3.192
		c-4.646,0-8.619-1.65-11.918-4.95c-3.3-3.3-4.949-7.271-4.949-11.919c0-4.646,1.649-8.619,4.949-11.919
		c3.299-3.297,7.271-4.947,11.918-4.947c3.357,0,6.422,0.916,9.195,2.752C205.79,16.555,207.831,18.916,209.158,21.846z
		 M193.843,19.239c-2.694,0-4.988,0.947-6.882,2.841c-1.874,1.894-2.812,4.189-2.812,6.883v0.205l16.37-7.35
		C199.074,20.099,196.849,19.239,193.843,19.239z"/>
	<path fill="#006838" d="M220.123,45.742c-4.647,0-8.619-1.65-11.919-4.947c-3.299-3.3-4.949-7.273-4.949-11.919
		c0-4.648,1.65-8.62,4.949-11.919c3.3-3.3,7.271-4.95,11.919-4.95c4.236,0,7.468,1.181,9.693,3.544c0-0.994,0.352-1.826,1.055-2.489
		c0.702-0.703,1.531-1.055,2.489-1.055h0.088c0.956,0,1.786,0.352,2.487,1.055c0.703,0.664,1.055,1.495,1.055,2.489v13.325
		c0,4.646-1.649,8.619-4.948,11.919C228.742,44.092,224.77,45.742,220.123,45.742z M220.123,38.567c2.674,0,4.959-0.946,6.853-2.84
		c1.894-1.895,2.841-4.179,2.841-6.852c0-2.694-0.947-4.989-2.841-6.883c-1.874-1.873-4.159-2.812-6.853-2.812
		c-2.694,0-4.988,0.939-6.882,2.812c-1.874,1.894-2.812,4.189-2.812,6.883c0,2.673,0.938,4.957,2.812,6.852
		C215.135,37.621,217.429,38.567,220.123,38.567z"/>
</g>
</svg>
